# Blender v3.4.1 OBJ File: ''
# www.blender.org
mtllib Wall.mtl
o Plane
v -0.220865 5.810728 -3.542814
v -0.220865 0.000000 -3.542814
v -0.220865 5.810728 3.542814
v -0.220865 0.000000 3.542814
v 0.220865 0.000000 3.542814
v 0.220865 5.810728 3.542814
v 0.220865 0.000000 -3.542814
v 0.220865 5.810728 -3.542814
vt 0.450571 0.000000
vt 0.000000 0.549429
vt 0.000000 0.000000
vt 0.034252 1.000000
vt 0.000000 0.549429
vt 0.034252 0.549429
vt 0.901142 0.000000
vt 0.450571 0.549429
vt 0.450571 0.000000
vt 0.068505 1.000000
vt 0.034252 0.549429
vt 0.068505 0.549429
vt 0.935395 0.000000
vt 0.901143 0.549429
vt 0.901143 0.000000
vt 0.969647 0.000000
vt 0.935395 0.549429
vt 0.935395 0.000000
vt 0.450571 0.549429
vt 0.000000 1.000000
vt 0.901142 0.549429
vt 0.034252 1.000000
vt 0.935395 0.549429
vt 0.969647 0.549429
vn -1.0000 0.0000 0.0000
vn 0.0000 0.0000 -1.0000
vn 1.0000 0.0000 0.0000
vn 0.0000 0.0000 1.0000
vn 0.0000 -1.0000 0.0000
vn 0.0000 1.0000 0.0000
usemtl None
s off
f 3/1/1 2/2/1 4/3/1
f 1/4/2 7/5/2 2/6/2
f 8/7/3 5/8/3 7/9/3
f 6/10/4 4/11/4 5/12/4
f 7/13/5 4/14/5 2/15/5
f 1/16/6 6/17/6 8/18/6
f 3/1/1 1/19/1 2/2/1
f 1/4/2 8/20/2 7/5/2
f 8/7/3 6/21/3 5/8/3
f 6/10/4 3/22/4 4/11/4
f 7/13/5 5/23/5 4/14/5
f 1/16/6 3/24/6 6/17/6
